<svg width="24" height="25" viewBox="0 0 24 25" fill="none" xmlns="http://www.w3.org/2000/svg">
<path d="M20.3303 4.72781C18.7767 4.00093 17.1156 3.47267 15.3789 3.17188C15.1656 3.55749 14.9164 4.07614 14.7446 4.48873C12.8985 4.21109 11.0693 4.21109 9.25716 4.48873C9.08539 4.07614 8.83055 3.55749 8.61536 3.17188C6.87681 3.47267 5.21376 4.00287 3.66019 4.73166C0.526643 9.46686 -0.322811 14.0845 0.101917 18.6365C2.18025 20.1885 4.19441 21.1313 6.17457 21.7483C6.66349 21.0754 7.09953 20.3601 7.47518 19.6063C6.75975 19.3344 6.07453 18.999 5.42707 18.6095C5.59884 18.4822 5.76686 18.3492 5.92918 18.2123C9.87819 20.0594 14.1689 20.0594 18.0707 18.2123C18.235 18.3492 18.403 18.4822 18.5728 18.6095C17.9235 19.0009 17.2364 19.3363 16.521 19.6082C16.8966 20.3601 17.3308 21.0774 17.8216 21.7502C19.8036 21.1333 21.8197 20.1905 23.898 18.6365C24.3964 13.3595 23.0467 8.78434 20.3303 4.72781ZM8.01318 15.837C6.82772 15.837 5.85555 14.7303 5.85555 13.3826C5.85555 12.035 6.80696 10.9264 8.01318 10.9264C9.21942 10.9264 10.1916 12.033 10.1708 13.3826C10.1727 14.7303 9.21942 15.837 8.01318 15.837ZM15.9867 15.837C14.8013 15.837 13.8291 14.7303 13.8291 13.3826C13.8291 12.035 14.7805 10.9264 15.9867 10.9264C17.193 10.9264 18.1651 12.033 18.1444 13.3826C18.1444 14.7303 17.193 15.837 15.9867 15.837Z" fill="white"/>
</svg>
