<svg width="1461" height="236" viewBox="0 0 1461 236" fill="none" xmlns="http://www.w3.org/2000/svg">
<path d="M251.452 412.589C263.228 398.717 282.384 394.06 300.186 390.149C341.854 381.032 381.089 368.751 422.757 359.634C424.066 323.82 383.078 357.814 384.386 322C408.685 322.255 470.294 232.817 486.467 214.661C511.982 186.071 545.603 158.7 571.06 130.169C580.125 130.116 588.934 127.156 596.196 121.725C603.458 116.293 608.791 108.675 611.413 99.9874C617.301 79.1983 627.939 54.8921 637.713 35.6554C640.167 30.8216 655.044 21.665 667.37 14.4341C655.07 15.5737 642.816 17.1326 630.608 19.1106C608.469 22.7457 586.487 24.7107 564.092 26.3219C545.976 27.6384 527.978 31.195 510.078 34.1817C495.142 36.7754 480.481 40.9214 465.466 43.0632C453.297 44.7923 441.148 47.3074 429.195 50.2352C413.922 54.0942 398.946 59.0522 384.386 65.0705C368.9 71.3582 352.747 76.2902 337.929 84.0124C328.429 88.9641 317.556 91.8722 307.644 95.9986C298.948 99.4091 290.078 102.354 281.069 104.821C264.406 109.733 247.526 113.703 230.667 117.868C194.337 126.828 158.537 140.131 126.349 159.309C111.746 167.994 96.1818 174.38 81.0689 182.023C74.1013 185.541 67.33 189.431 60.382 193.125C56.9931 194.887 53.7158 196.856 50.5684 199.02C47.0159 201.535 46.1523 201.614 41.0493 203.088C27.8028 206.853 14.1451 208.978 0.381897 209.415C0.551999 295.518 0.735183 381.622 0.931454 467.725H241.462C240.357 462.16 239.701 456.516 239.499 450.846C239.263 437.328 242.561 423.023 251.452 412.589Z" fill="#A5FFA3"/>
<path d="M1554.75 229.181C1551.16 221.577 1542.97 216.92 1535.81 213.128C1527.55 208.746 1518.95 205.072 1510.47 201.122C1500.66 196.564 1491.37 190.924 1481.74 186.031C1473.22 181.709 1464.07 178.899 1455.48 174.871C1445.27 170.096 1435.46 164.319 1425.45 159.151C1410.61 151.527 1395.22 144.375 1379.74 138.126C1361.91 130.954 1343.31 125.59 1325.27 119.008C1297.79 108.986 1269 103.661 1241.44 94.0332C1204.82 81.2218 1169.53 64.3823 1131.81 54.8328C1105.62 48.2109 1079.15 44.1435 1052.49 39.7813C1032.87 36.5588 1014.2 28.7973 994.613 25.1033C982.581 22.8436 970.471 22.4113 958.361 20.859C949.667 19.739 941.07 18.1867 932.356 17.2632C902.719 14.0996 872.826 13.1564 843.072 11.7417C834.22 11.3094 825.407 11.1522 816.497 11.0933C824.936 29.3672 851.217 58.7233 857.714 68.5676C862.169 75.2681 869.019 79.925 875.712 84.2871C908.587 106.275 942.071 136.633 974.966 158.621C978.146 184.165 982.817 212.578 1003.48 228.022C1017.5 238.535 1036.07 240.617 1051.57 248.772C1072.04 259.559 1085.33 278.639 1086.72 301.825L1233.16 379.853C1241.56 384.333 1250.41 389.245 1255.01 397.537C1261.35 409.111 1257.28 424.162 1248.78 434.242C1240.29 444.322 1228.19 450.532 1216.44 456.505L1194.75 467.509L1522.42 467.43C1530.18 386.868 1540.6 306.423 1554.75 229.181Z" fill="#A5FFA3"/>
<path d="M1199.89 447.781C1203.45 443.497 1206 438.428 1209.82 434.38C1217.52 426.285 1230.39 421.922 1232.89 411.037C1234.48 404.061 1230.92 396.928 1226.45 391.289C1212.53 373.605 1189.51 364.311 1166.98 364.35C1164.76 364.61 1162.52 364.163 1160.58 363.073C1158.62 361.658 1158.05 359.143 1157.28 356.863C1153.87 346.744 1145.21 339.041 1135.57 334.463C1125.94 329.885 1115.24 328.038 1104.68 326.387C1102.2 326.187 1099.79 325.52 1097.56 324.422C1092.14 321.219 1090.96 313.733 1086.39 309.41C1080.27 303.653 1068.72 303.889 1065.86 295.99C1064.58 292.414 1065.86 288.484 1065.76 284.691C1065.76 276.989 1060.54 270.053 1054.08 265.848C1047.63 261.643 1040.68 259.835 1033.2 257.988C1033.02 256.023 1032.83 254.058 1032.65 252.093L1001.7 249.146C998.736 249.149 995.838 248.288 993.357 246.67C991.591 244.993 990.274 242.898 989.529 240.578C982.892 224.365 978.82 207.215 977.459 189.746C976.575 178.211 975.496 164.319 965.349 158.896C960.265 156.204 953.945 156.42 949.019 153.453C946.503 151.63 944.122 149.627 941.894 147.46C939.278 145.36 936.268 143.806 933.042 142.888C929.816 141.97 926.44 141.707 923.111 142.116C922.243 135.437 918.974 129.304 913.917 124.863C908.86 120.422 902.36 117.978 895.633 117.986C894.26 118.206 892.852 118.036 891.57 117.495C889.922 116.571 889.411 114.489 888.666 112.759C885.113 104.507 874.927 102.011 867.606 96.7452C863.366 93.3596 859.626 89.3904 856.497 84.9556L839.5 63.2037C834.564 57.1427 829.977 50.8054 825.761 44.2225C819.562 34.0694 815.16 22.922 812.748 11.2705C797.655 11.2705 782.522 11.5063 767.468 11.4867C743.288 11.4867 719.028 11.7224 694.848 12.7835C685.689 13.2027 676.529 13.8577 667.37 14.7484L665.093 16.0846L648.155 36.7164C643.68 42.1593 639.107 47.8183 637.203 54.617C635.79 59.6472 635.966 64.9918 634.965 70.1203C633.14 79.3948 627.586 87.4314 624.19 96.2343C621.148 104.094 619.833 112.583 617.026 120.56C614.22 128.538 609.47 136.398 601.874 140.21C596.477 142.862 590.196 143.118 584.602 145.397C579.009 147.676 573.866 153.375 575.594 159.152C568.317 160.651 561.484 163.813 555.629 168.39C549.773 172.967 545.052 178.837 541.835 185.541C537.517 194.737 526.133 201.26 518.95 208.334C517.119 210.397 514.88 212.057 512.375 213.207C509.254 214.366 505.701 213.914 502.561 215.172C494.985 218.375 495.142 228.926 491.668 236.432C485.525 249.598 468.351 252.152 455.868 259.56C446.15 265.726 438.532 274.703 434.023 285.3C430.822 292.467 428.699 300.069 427.723 307.858C425.858 322.438 427.723 337.214 427.389 351.912C427.232 357.197 426.545 362.994 422.738 366.649C417.949 371.247 409.96 370.854 405.073 375.255C401.776 378.163 400.166 382.899 396.241 384.864C394.018 385.747 391.646 386.194 389.254 386.18C380.951 386.824 372.9 389.336 365.701 393.529C362.141 396.004 358.316 398.073 354.298 399.699C349.038 401.408 343.346 400.799 337.831 401.31C329.215 402.309 321.135 406.011 314.75 411.888C308.365 417.765 304.002 425.515 302.286 434.026C300.323 445.227 300.991 456.525 300.48 467.843L1182.58 467.568C1183.46 465.52 1184.61 463.597 1186 461.85C1190.12 456.702 1195.67 452.792 1199.89 447.781Z" fill="#79BDAE"/>
<path d="M1215.78 456.353C1227.55 450.458 1239.62 444.17 1248.12 434.09C1256.62 424.01 1260.68 408.958 1254.34 397.385C1249.75 389.034 1240.9 384.122 1232.5 379.701L1086.06 301.673C1084.67 278.546 1071.38 259.466 1050.91 248.62C1035.4 240.465 1016.84 238.382 1002.82 227.87C982.234 212.426 982.98 184.641 979.82 159.097C946.925 137.09 907.926 106.181 875.05 84.1939C868.357 79.7335 861.508 75.0766 857.052 68.4744C850.536 58.6497 824.255 29.1757 815.835 11H812.008C814.42 22.6515 818.823 33.7989 825.021 43.952C829.237 50.5349 833.824 56.8722 838.76 62.9332L855.757 84.6851C858.886 89.1199 862.626 93.0891 866.866 96.4747C874.128 101.741 884.373 104.334 887.926 112.489C888.672 114.218 889.182 116.301 890.831 117.224C892.112 117.765 893.52 117.935 894.893 117.716C901.62 117.707 908.12 120.152 913.177 124.593C918.235 129.034 921.503 135.167 922.371 141.845C925.7 141.437 929.076 141.699 932.302 142.617C935.528 143.535 938.538 145.09 941.154 147.19C943.382 149.356 945.763 151.359 948.279 153.183C953.206 156.15 959.525 155.934 964.609 158.626C974.815 164.049 975.836 177.941 976.719 189.475C978.08 206.944 982.153 224.094 988.789 240.308C989.534 242.628 990.851 244.723 992.617 246.399C995.098 248.018 997.997 248.878 1000.96 248.875L1031.91 251.823C1032.09 253.787 1032.28 255.752 1032.46 257.717C1039.94 259.545 1046.89 261.372 1053.34 265.577C1059.8 269.782 1064.98 276.718 1065.02 284.421C1065.02 288.213 1063.84 292.143 1065.12 295.719C1067.95 303.579 1079.53 303.382 1085.65 309.14C1090.22 313.463 1091.4 320.929 1096.82 324.152C1099.05 325.25 1101.46 325.917 1103.94 326.117C1114.5 327.767 1125.18 329.614 1134.83 334.193C1144.49 338.771 1153.13 346.473 1156.54 356.593C1157.31 358.853 1157.92 361.387 1159.84 362.802C1161.78 363.892 1164.02 364.339 1166.24 364.079C1188.77 364.079 1211.79 373.295 1225.71 391.019C1230.14 396.658 1233.74 403.791 1232.15 410.766C1229.65 421.652 1216.78 426.014 1209.08 434.11C1205.16 438.157 1202.71 443.227 1199.15 447.51C1194.93 452.619 1189.34 456.53 1185.26 461.737C1183.87 463.484 1182.72 465.406 1181.84 467.455H1194.03L1215.78 456.353Z" fill="#69AA80"/>
<path d="M337.13 400.745C342.646 400.234 348.337 400.843 353.597 399.134C357.616 397.508 361.441 395.438 365.001 392.964C372.199 388.771 380.25 386.259 388.553 385.615C390.945 385.629 393.317 385.182 395.541 384.298C399.466 382.333 401.075 377.598 404.373 374.69C409.338 370.288 417.327 370.76 422.037 366.083C425.845 362.429 426.532 356.632 426.689 351.346C427.101 336.649 425.158 321.872 427.022 307.293C427.999 299.503 430.122 291.902 433.323 284.735C437.831 274.137 445.449 265.161 455.168 258.994C467.651 251.567 484.824 249.032 490.968 235.867C494.442 228.4 494.285 217.809 501.861 214.607C504.922 213.31 508.475 213.762 511.674 212.642C514.18 211.492 516.419 209.832 518.249 207.769C525.511 200.675 536.816 194.171 541.134 184.975C544.352 178.271 549.073 172.402 554.928 167.825C560.784 163.247 567.616 160.086 574.893 158.586C573.166 152.809 578.328 147.091 583.902 144.832C589.476 142.572 595.776 142.297 601.174 139.644C608.769 135.931 613.5 128.09 616.326 119.995C619.152 111.899 620.448 103.647 623.509 95.7869C626.905 86.984 632.459 78.9474 634.285 69.6729C635.286 64.5445 635.109 59.1998 636.522 54.1696C638.485 47.3709 642.999 41.7119 647.474 36.269L664.412 15.6372C652.636 22.6324 639.329 30.9833 637.033 35.5223C627.219 54.7591 616.581 79.0653 610.732 99.8544C608.088 108.51 602.751 116.093 595.499 121.498C588.246 126.902 579.459 129.846 570.418 129.898C544.903 158.488 511.282 185.86 485.825 214.39C469.653 232.546 405.798 322.255 381.5 322C380.192 357.827 423.424 323.562 422.116 359.363C380.447 368.481 341.213 380.762 299.544 389.879C281.743 393.809 262.645 398.446 250.81 412.318C241.919 422.752 238.622 437.057 239.034 450.772C239.236 456.442 239.892 462.086 240.997 467.651H299.878C300.388 456.333 299.878 445.035 301.684 433.835C303.324 425.269 307.642 417.447 314.014 411.499C320.385 405.551 328.481 401.785 337.13 400.745Z" fill="#69AA80"/>
<path d="M715.868 19.5818C705.604 19.8372 694.985 19.9944 685.27 23.6295C695.476 23.0401 705.662 25.1229 715.908 24.5137C724.603 23.9046 732.983 21.3502 741.541 19.7979C733.003 18.6779 724.426 19.4246 715.868 19.5818Z" fill="#FBFBFB"/>
<path d="M757.812 18.5406C764.821 18.6594 771.809 17.7188 778.538 15.7504C771.511 15.2455 764.456 16.1953 757.812 18.5406Z" fill="#FBFBFB"/>
<path d="M745.407 25.4176C751.355 26.4165 757.43 26.3833 763.366 25.3194C757.425 24.2417 751.336 24.275 745.407 25.4176Z" fill="#FBFBFB"/>
<path d="M756.398 33.4739C741.796 32.0002 726.546 31.3322 712.375 35.7729C724.681 35.9498 737.046 37.4628 749.274 35.262C752.355 34.8297 755.417 34.2992 758.459 33.7097L756.398 33.4739Z" fill="#FBFBFB"/>
<path d="M787.566 31.2145C792.304 31.6506 797.079 31.3791 801.737 30.4088C797.009 29.6826 792.182 29.9571 787.566 31.2145Z" fill="#FBFBFB"/>
<path d="M785.623 48.5059C779.161 46.9491 772.412 47.0437 765.996 48.781C772.427 49.3706 778.898 49.3706 785.329 48.781C785.996 48.7024 787.193 48.8989 785.623 48.5059Z" fill="#FBFBFB"/>
<path d="M707.193 51.8853C714.057 53.9256 721.226 54.7371 728.371 54.2825C721.512 52.223 714.339 51.411 707.193 51.8853Z" fill="#FBFBFB"/>
<path d="M675.476 47.4252C677.598 47.9932 679.806 48.173 681.992 47.9558C679.87 47.3878 677.662 47.2081 675.476 47.4252Z" fill="#FBFBFB"/>
<path d="M732.866 71.9281C712.002 69.7077 690.863 69.02 670.177 73.0874C683.601 74.4629 692.237 75.7204 703.543 77.2924C713.356 78.7268 723.052 80.7114 732.983 80.8882C749.843 80.5149 766.349 76.4082 782.915 73.5C766.369 71.6727 749.549 72.4783 732.866 71.9281Z" fill="#FBFBFB"/>
<path d="M769.823 60.4331C779.215 63.3372 789.004 64.7495 798.832 64.6184C789.528 61.3423 779.673 59.9205 769.823 60.4331Z" fill="#FBFBFB"/>
<path d="M819.362 80.8877C821.535 81.4008 823.783 81.514 825.996 81.2218C823.823 80.7087 821.576 80.5955 819.362 80.8877Z" fill="#FBFBFB"/>
<path d="M785.859 135.356C769.45 135.12 753.023 135.356 736.634 134.393C710.275 132.526 682.188 131.878 658.341 144.964C671.33 142.337 684.603 141.399 697.831 142.174C713.14 143.255 728.489 145.2 743.837 143.903C758.086 142.702 772.205 140.27 786.035 136.633L790.687 135.454L785.859 135.356Z" fill="#FBFBFB"/>
<path d="M799.951 109.085C790.687 109.812 781.639 111.934 772.473 113.369C792.846 116.139 814.083 113.565 833.494 110.775C822.422 108.858 811.159 108.291 799.951 109.085Z" fill="#FBFBFB"/>
<path d="M781.089 125.06C792.246 127.417 803.765 127.477 814.946 125.237C803.729 123.527 792.323 123.468 781.089 125.06Z" fill="#FBFBFB"/>
<path d="M715.005 99.2603C727.469 100.112 739.99 99.452 752.296 97.2954C739.878 95.1012 727.124 95.7733 715.005 99.2603Z" fill="#FBFBFB"/>
<path d="M729.745 115.883C738.388 117.346 747.19 117.624 755.908 116.709C747.351 114.531 738.422 114.249 729.745 115.883Z" fill="#FBFBFB"/>
<path d="M835.241 153.04C822.519 151.199 809.551 152.131 797.223 155.772C810.221 156.567 823.268 155.801 836.084 153.492C838.086 153.178 836.261 153.158 835.241 153.04Z" fill="#FBFBFB"/>
<path d="M740.501 180.117C716.379 178.997 692.336 176.58 668.234 175.303C646.86 174.831 625.054 177.111 604.759 184.302C632.002 182.082 659.244 186.09 686.428 187.328C705.532 187.644 724.615 185.899 743.346 182.121C745.702 181.709 748.057 181.257 750.393 180.805C747.154 180.549 743.818 180.314 740.501 180.117Z" fill="#FBFBFB"/>
<path d="M848.803 187.564C860.77 187.693 872.73 186.925 884.583 185.265C872.67 182.755 860.298 183.55 848.803 187.564Z" fill="#FBFBFB"/>
<path d="M897.537 211.104C883.247 207.877 868.429 207.789 854.102 210.849C864.314 212.279 874.636 212.759 884.936 212.283C889.431 212.106 893.926 211.733 898.401 211.281L897.537 211.104Z" fill="#FBFBFB"/>
<path d="M814.259 228.926C797.537 228.926 780.815 229.326 764.092 230.125C735.672 231.795 706.958 227.276 678.793 232.542C667.448 235.175 655.024 236.472 645.211 243.211C653.199 240.067 662.051 240.696 670.471 240.185C692.316 238.987 713.984 242.543 735.77 242.858C759.323 242.7 782.188 236.963 804.956 231.756C808.764 230.852 812.558 229.909 816.34 228.926H814.259Z" fill="#FBFBFB"/>
<path d="M884.563 192.339L882.738 192.732C886.467 193.066 890.216 193.341 893.945 193.518C911.374 194.795 928.744 192.831 946.075 191.278C925.839 186.444 904.721 187.761 884.563 192.339Z" fill="#FBFBFB"/>
<path d="M765.937 193.086C753.553 192.909 741.717 196.387 729.882 199.55C721.738 201.01 713.5 201.884 705.231 202.164C715.044 204.561 725.211 206.094 735.201 204.482C749.921 201.437 764.387 197.271 779.107 194.147L782.365 193.4C776.898 193.021 771.415 192.916 765.937 193.086Z" fill="#FBFBFB"/>
<path d="M791.727 178.408C799.098 178.919 806.502 178.188 813.631 176.246C806.259 175.594 798.83 176.328 791.727 178.408Z" fill="#FBFBFB"/>
<path d="M867.449 133.214C859.676 131.645 851.669 131.645 843.896 133.214C851.593 134.428 859.422 134.554 867.154 133.587C868.057 133.391 869.195 133.391 867.449 133.214Z" fill="#F2D6E5"/>
<path d="M645.113 110.716C658.852 112.052 679.598 112.032 689.647 108.888C674.825 106.583 659.696 107.204 645.113 110.716Z" fill="#FBFBFB"/>
<path d="M587.762 222.344C599.185 222.56 609.725 222.501 620.422 220.104C609.352 218.708 598.145 218.748 587.762 222.344Z" fill="#FBFBFB"/>
<g opacity="0.45">
<path d="M589.019 37.325L583.13 37.4822C569.215 38.2289 555.24 38.3271 541.325 39.2114C530.569 40.4493 520.127 43.4949 509.489 45.3223C497.497 47.6802 485.289 49.4683 473.572 52.9462C463.009 56.8647 452.896 61.904 443.405 67.978C454.455 64.8734 465.485 61.4348 476.771 59.8039C484.622 58.959 492.335 58.8214 500.068 57.839C507.829 57.1706 515.53 55.9359 523.111 54.1449C532.924 51.5904 542.62 48.2501 552.767 46.8746C565.364 44.4563 577.815 41.3271 590.059 37.5019C591.688 37.1089 589.529 37.3643 589.019 37.325Z" fill="#26602E"/>
<path d="M549.646 60.2562C543.417 61.6677 537.453 64.0691 531.982 67.3693C548.135 63.4394 560.127 64.1665 577.242 59.0773C568.135 58.979 558.714 58.4485 549.646 60.2562Z" fill="#26602E"/>
<path d="M578.675 55.0685C588.155 51.1386 598.302 47.7 608.41 44.34C597.491 43.9655 586.845 47.8065 578.675 55.0685Z" fill="#26602E"/>
<path d="M589.136 67.9784C596.815 67.4683 604.366 65.7508 611.511 62.8892C603.791 63.0956 596.188 64.8251 589.136 67.9784Z" fill="#26602E"/>
<path d="M463.955 82.3024C459.637 85.2302 464.799 82.6364 466.899 82.0469C474.749 79.1781 482.6 76.5255 490.569 74.3444C497.065 72.5367 503.66 70.6503 510.451 71.0826C494.416 65.5415 476.869 72.4777 463.955 82.3024Z" fill="#26602E"/>
<path d="M333.375 98.6704C332.158 99.2795 330.706 99.5546 333.375 99.2206C342.659 98.3953 351.197 94.7798 359.362 91.3608C350.274 91.8128 341.226 95.1925 333.375 98.6704Z" fill="#26602E"/>
<path d="M319.146 111.875C326.793 111.293 334.309 109.565 341.442 106.747C333.739 106.917 326.151 108.662 319.146 111.875Z" fill="#26602E"/>
<path d="M254.769 124.293C252.571 125.747 245.564 129.088 252.158 126.907C263.935 123.429 276.064 121.739 287.958 118.851C298.055 115.984 307.774 111.921 316.908 106.747C295.986 111.777 273.611 113.172 254.769 124.293Z" fill="#26602E"/>
<path d="M283.385 138.913C297.811 139.993 312.963 137.655 324.838 128.911C311.236 132.998 297.085 135.081 283.385 138.913Z" fill="#26602E"/>
<path d="M310.353 146.497C318.394 145.368 326.197 142.932 333.454 139.286C325.365 140.193 317.524 142.641 310.353 146.497Z" fill="#26602E"/>
<path d="M333.218 126.474C338.737 125.793 344.169 124.542 349.43 122.741C343.797 122.583 338.217 123.868 333.218 126.474Z" fill="#26602E"/>
<path d="M361.207 167.875C358.361 168.367 355.534 168.897 352.708 169.487C338.586 172.418 324.738 176.546 311.315 181.826C328.708 181.229 345.731 176.638 361.069 168.406C362.051 167.797 363.307 167.443 361.207 167.875Z" fill="#26602E"/>
<path d="M498.734 158.699C488.096 162.629 479.774 165.93 469.293 170.862C486.761 168.426 505.525 163.867 518.361 151.056C512.277 154.612 505.329 156.381 498.734 158.699Z" fill="#26602E"/>
<path d="M167.428 187.053C155.533 190.17 144.279 195.358 134.18 202.38C131.412 204.227 128.743 206.192 126.113 208.275L127.369 207.783C138.701 203.174 150.392 199.507 162.325 196.819C184.759 192.26 207.958 189.765 228.959 180.039C209.195 183.025 187.566 182.259 167.428 187.053Z" fill="#26602E"/>
<path d="M135.887 216.626C150.529 213.855 164.366 208.294 178.557 203.971C163.365 203.264 148.782 209.021 135.887 216.626Z" fill="#26602E"/>
<path d="M143.208 230.419L142.521 230.891C145.649 229.922 148.743 228.867 151.805 227.727C159.263 225.153 166.27 221.066 174.258 217.51C162.894 218.571 152.413 223.876 143.208 230.419Z" fill="#26602E"/>
<path d="M137.418 249.067C148.31 245.468 158.492 239.996 167.507 232.896C156.611 236.486 146.428 241.959 137.418 249.067Z" fill="#26602E"/>
<path d="M91.6479 194.874C83.4242 198.647 77.7519 201.437 69.4889 204.365C50.6469 210.259 30.5487 213.855 13.8461 224.898C31.1572 219.632 49.744 219.161 66.5645 212.106C76.6724 208.177 85.328 201.24 93.3751 194.068L91.6479 194.874Z" fill="#26602E"/>
<path d="M73.1003 224.151C57.3986 227.944 44.0522 234.448 30.431 240.283C48.9982 238.633 66.5645 231.52 82.6587 222.383L84.0915 221.558C80.4212 222.344 76.7509 223.189 73.1003 224.151Z" fill="#26602E"/>
<path d="M187.173 155.968C200.124 155.728 212.948 153.358 225.132 148.953C212.158 148.962 199.295 151.339 187.173 155.968Z" fill="#26602E"/>
<path d="M342.423 199.806C323.778 206.152 304.209 216.92 287.468 224.446C274.847 229.417 261.403 231.834 248.704 236.589C260.48 235.823 272.257 235.784 283.837 233.662C306.781 228.867 325.368 213.501 344.681 201.201C346.82 199.806 348.94 198.391 351.059 196.957C348.135 197.88 345.269 198.823 342.423 199.806Z" fill="#26602E"/>
<path d="M331.707 223.778C322.754 226.101 314.375 230.249 307.095 235.961C316.107 233.064 324.689 228.966 332.61 223.778C333.788 223.012 332.237 223.66 331.707 223.778Z" fill="#26602E"/>
<path d="M991.59 44.1042C981.561 40.98 971.59 37.6789 961.521 34.7119C954.203 32.7268 946.669 31.6446 939.088 31.4894C930.766 31.3715 922.463 32.1967 914.142 31.8823C903.248 31.4501 892.336 31.175 881.462 30.4283C869.568 29.4262 857.537 28.6402 845.761 31.0178C856.732 31.7251 868.155 34.9476 879.539 37.8361C889.458 40.1154 899.516 41.7432 909.647 42.7092C922.522 44.3401 935.162 41.2747 948.116 41.1568C961.639 41.1568 975.005 43.7113 988.509 44.1042L992.12 44.2614L991.59 44.1042Z" fill="#26602E"/>
<path d="M1070.59 65.8363C1055.7 56.1625 1038.77 50.1066 1021.13 48.1519C1033.08 53.4572 1044.92 59.1751 1057.62 62.4566C1062.29 63.7927 1066.96 65.1093 1071.63 66.4847L1070.59 65.8363Z" fill="#26602E"/>
<path d="M990.628 66.0133C1004.19 68.2336 1017.24 72.6351 1030.55 75.9755C1041.46 78.4709 1058.03 82.1061 1066.33 82.9903C1043.11 71.2203 1016.87 62.6532 990.628 66.0133Z" fill="#26602E"/>
<path d="M883.288 51.5711C875.323 49.5912 867.004 49.5239 859.009 51.3746C866.997 52.023 874.985 52.9662 882.974 52.0034C884.132 51.8658 885.25 51.9444 883.288 51.5711Z" fill="#26602E"/>
<path d="M868.548 60.2952C880.129 63.8515 892.175 65.6594 904.289 65.6595C892.847 61.5215 880.699 59.6982 868.548 60.2952Z" fill="#26602E"/>
<path d="M900.344 80.6519C910.182 84.4647 920.694 86.2298 931.237 85.8393C924.328 82.6364 910.452 81.0448 900.344 80.6519Z" fill="#26602E"/>
<path d="M959.461 80.652C972.925 84.2085 991.394 87.097 1003.09 86.1931C989.084 81.3593 974.23 79.4729 959.461 80.652Z" fill="#26602E"/>
<path d="M1022.4 100.4C1036.48 103.445 1055.04 106.55 1066.15 105.744C1052.2 100.52 1037.2 98.6879 1022.4 100.4Z" fill="#26602E"/>
<path d="M1068.19 175.303C1058.38 172.945 1048.29 170.784 1038.28 168.897C1026.96 166.932 1015.61 164.712 1005.25 159.583C1021.76 175.205 1045.82 177.464 1067.53 176.757C1069.39 176.757 1071.25 176.678 1073.12 176.521L1068.19 175.303Z" fill="#26602E"/>
<path d="M1457.83 202.596C1437.32 192.398 1417.69 180.392 1396.67 171.157C1366.51 159.367 1333.38 160.448 1301.54 161.332C1328.18 167.227 1355.3 171.157 1381.42 179.233C1405.94 186.818 1429.06 198.568 1454.2 204.364C1458.83 205.602 1463.48 206.762 1468.16 207.882L1457.83 202.596Z" fill="#26602E"/>
<path d="M1411.61 165.105C1395.14 154.593 1376.48 146.89 1356.85 145.593C1370.98 151.193 1382.82 157.206 1398.58 161.804C1403.31 163.278 1408.1 164.614 1412.89 165.911L1411.61 165.105Z" fill="#26602E"/>
<path d="M1323.78 133.489C1327.99 135.622 1332.47 137.194 1337.09 138.166C1333.06 135.613 1328.51 134.013 1323.78 133.489Z" fill="#26602E"/>
<path d="M1333.97 191.416C1343.78 194.324 1358.46 196.917 1366.68 196.387C1356.26 192.411 1345.1 190.716 1333.97 191.416Z" fill="#26602E"/>
<path d="M1382.92 193.321C1394.99 196.917 1413.06 202.498 1422.78 202.419C1410.31 196.603 1396.77 192.634 1382.92 193.321Z" fill="#26602E"/>
<path d="M1336.5 233.426C1342.88 233.288 1348.92 235.607 1354.95 237.356C1361.7 239.321 1368.69 240.618 1375.5 241.914C1363.74 236.039 1349.84 229.516 1336.5 233.426Z" fill="#26602E"/>
<path d="M1266.35 196.721C1244.23 183.084 1220.32 169.997 1194.08 167.247C1206.15 172.08 1217.32 178.761 1229.04 184.361C1238.71 188.742 1248.67 192.477 1258.83 195.542C1262.43 196.642 1266.01 197.762 1269.57 198.902C1268.51 198.234 1267.45 197.428 1266.35 196.721Z" fill="#26602E"/>
</g>
<path d="M562.463 108.967C555.26 106.098 547.959 103.072 542.326 98.4739C536.693 93.876 532.885 87.2148 534.337 80.7895C535.79 74.3641 543.719 68.8623 551.55 70.2182C550.695 73.0741 550.551 76.0958 551.129 79.0205C551.707 81.9451 552.99 84.684 554.867 86.9987C554.311 80.6539 555.197 74.2654 557.458 68.3122C558.807 65.107 560.804 62.2162 563.324 59.8219C565.844 57.4276 568.832 55.5817 572.1 54.4004C575.291 53.0759 578.869 53.0336 582.09 54.2825C587.586 56.9745 586.526 63.6946 584.19 68.5873C581.855 73.4799 579.087 79.3747 583.013 83.5207C583.319 81.5424 584.222 79.7051 585.601 78.2547C586.979 76.8044 588.768 75.8103 590.726 75.4056C592.828 74.8791 595.029 74.8988 597.12 75.4627C599.212 76.0267 601.126 77.1163 602.679 78.6281L591.413 93.0114C593.232 91.834 595.332 91.1657 597.496 91.0758C599.661 90.986 601.809 91.4779 603.719 92.5005C605.414 93.3714 606.717 94.8528 607.365 96.6464C608.013 98.44 607.959 100.413 607.213 102.168C596.752 100.891 588.744 110.421 578.263 111.58C572.865 111.945 567.457 111.05 562.463 108.967Z" fill="#60D35C"/>
<path d="M561.815 116.119C568.43 109.321 570.687 99.6531 571.276 89.6319C570.981 89.4485 570.664 89.3033 570.333 89.1996C569.193 88.9159 568 88.9159 566.859 89.1996C541.325 94.1259 516.759 103.171 494.121 115.982C493.022 116.61 490.961 118.084 488.783 119.361C489.902 124.627 491.413 130.424 494.808 134.02L535.436 126.848C544.818 125.256 554.848 123.272 561.815 116.119Z" fill="#386738"/>
<path d="M507.134 137.733L585.839 135.886C590.216 128.321 589.47 119.361 586.506 111.914C583.543 104.467 578.655 98.1597 573.709 92.088C573.053 91.1292 572.228 90.2971 571.276 89.6318C570.687 99.653 568.43 109.281 561.815 116.119C554.848 123.272 544.818 125.256 535.436 126.926L494.808 134.098C495.715 135.092 496.8 135.905 498.008 136.496C500.906 137.636 504.037 138.061 507.134 137.733Z" fill="#274534"/>
<path d="M543.974 119.637C551.099 118.713 557.301 114.135 561.639 108.613C555.711 112.229 550.098 116.434 543.974 119.637Z" fill="#5FAE6D"/>
<path d="M551.452 107.847C555.341 105.32 558.502 101.818 560.618 97.688C557.242 100.77 554.172 104.172 551.452 107.847Z" fill="#5FAE6D"/>
<path d="M558.066 106.019C560.756 103.871 562.834 101.052 564.092 97.8452C561.822 100.366 559.804 103.104 558.066 106.019Z" fill="#5FAE6D"/>
<path d="M553.219 119.911C558.176 117.023 562.176 112.738 564.72 107.591C560.626 111.447 556.785 115.562 553.219 119.911Z" fill="#5FAE6D"/>
<path d="M531.04 122.977C522.424 125.374 512.767 124.352 504.759 128.714C510.137 127.555 515.75 128.4 521.148 127.162C524.969 126.347 528.616 124.863 531.923 122.78L531.04 122.977Z" fill="#5FAE6D"/>
<path d="M524.956 119.46C528.764 118.789 532.441 117.515 535.849 115.687C532.002 116.2 528.297 117.483 524.956 119.46Z" fill="#5FAE6D"/>
<path d="M546.545 127.182C542.277 128.634 537.87 129.642 533.395 130.188C538.177 131.206 543.143 130.928 547.782 129.383C551.865 128.464 555.668 126.578 558.871 123.881C554.881 125.384 550.752 126.49 546.545 127.182Z" fill="#5FAE6D"/>
<path d="M566.879 118.674C571.02 115.058 575.456 110.166 576.967 105.175C573.171 109.333 569.792 113.854 566.879 118.674Z" fill="#5FAE6D"/>
<path d="M559.715 119.637C561.446 119.272 563.019 118.372 564.21 117.062C562.665 117.836 561.164 118.696 559.715 119.637Z" fill="#5FAE6D"/>
<path d="M567.782 111.953C569.295 110.162 570.472 108.112 571.256 105.901C569.746 107.695 568.57 109.745 567.782 111.953Z" fill="#5FAE6D"/>
<path d="M561.364 124.667C563.132 124.302 564.825 123.638 566.369 122.702C564.59 123.03 562.891 123.697 561.364 124.667Z" fill="#5FAE6D"/>
<path d="M557.478 130.188C564.583 129.245 571.904 124.608 574.161 117.907C569.647 123.232 563.523 126.848 557.478 130.188Z" fill="#5FAE6D"/>
<path d="M1188.16 299.094C1180.95 295.616 1173.65 291.942 1168.02 286.283C1162.39 280.624 1158.56 272.528 1160.03 264.668C1161.5 256.809 1169.41 250.069 1177.22 251.739C1176.37 255.197 1176.22 258.793 1176.78 262.311C1177.34 265.829 1178.61 269.197 1180.5 272.214C1179.97 264.486 1180.86 256.726 1183.13 249.322C1185.68 242.052 1190.73 235.352 1197.79 232.306C1199.33 231.506 1201.04 231.076 1202.77 231.049C1204.5 231.021 1206.22 231.398 1207.78 232.149C1213.28 235.45 1212.22 243.683 1209.88 249.656C1207.55 255.63 1204.78 262.861 1208.69 267.93C1208.8 265.689 1209.6 263.537 1210.98 261.768C1212.36 259.999 1214.26 258.699 1216.4 258.044C1218.54 257.389 1220.84 257.412 1222.97 258.108C1225.1 258.805 1226.97 260.142 1228.31 261.937L1217.07 279.523C1218.75 278.059 1220.88 277.205 1223.11 277.096C1225.34 276.988 1227.54 277.632 1229.37 278.925C1231.19 280.218 1232.52 282.085 1233.16 284.228C1233.79 286.371 1233.69 288.665 1232.87 290.743C1222.4 289.151 1214.38 300.823 1203.9 302.238C1198.46 302.691 1193 301.601 1188.16 299.094Z" fill="#60D35C"/>
<path d="M1006.55 124.942C1007.44 124.436 1008.16 123.677 1008.63 122.761C1009 121.778 1009.16 120.726 1009.1 119.676C1009.1 118.556 1009.1 117.416 1009.1 116.296C1008.66 115.857 1008.17 115.486 1007.63 115.196C1006.26 114.6 1004.77 114.37 1003.29 114.528C994.696 114.748 986.167 116.069 977.91 118.458C974.804 119.17 971.911 120.612 969.47 122.663C966.709 125.624 964.691 129.2 963.582 133.096L989.51 129.913C995.202 129.245 1001.25 128.459 1006.55 124.942Z" fill="#386738"/>
<path d="M1020.01 138.107C1022.25 136.338 1021.38 131.446 1019.42 128.282C1017.46 125.119 1014.61 123.311 1012.39 120.521C1011.36 119.006 1010.22 117.562 1009 116.198C1009 117.318 1009 118.457 1009 119.577C1009.07 120.628 1008.9 121.68 1008.53 122.662C1008.06 123.579 1007.34 124.338 1006.45 124.843C1001.15 128.361 995.103 129.147 989.215 129.854L963.288 133.037C962.719 134.707 962.189 136.397 961.678 138.087C981.541 138.539 1000.78 138.48 1020.01 138.107Z" fill="#274534"/>
<path d="M980.795 128.793C985.545 127.732 990.609 128.793 995.3 127.83C999.046 127.022 1002.33 124.789 1004.47 121.602C997.203 127.496 988.626 124.451 980.795 128.793Z" fill="#5FAE6D"/>
<path d="M999.519 131.092C1001.57 131.132 1003.6 130.695 1005.45 129.815C1007.29 128.935 1008.91 127.637 1010.18 126.022C1006.82 128.088 1003.24 129.788 999.519 131.092Z" fill="#5FAE6D"/>
<path d="M1007.45 130.64C1009.23 130.108 1010.85 129.143 1012.16 127.83C1010.48 128.578 1008.9 129.521 1007.45 130.64Z" fill="#5FAE6D"/>
<path d="M1008.49 132.585C1009.96 132.346 1011.38 131.818 1012.65 131.033C1011.18 131.308 1009.78 131.833 1008.49 132.585Z" fill="#5FAE6D"/>
</svg>
