<svg width="232" height="256" viewBox="0 0 232 256" fill="none" xmlns="http://www.w3.org/2000/svg">
<g clip-path="url(#clip0_7044_1770)">
<path d="M156.128 107.582C155.57 107.581 155.023 107.43 154.545 107.143L118.344 85.5342C117.385 84.9612 116.289 84.6586 115.172 84.6586C114.055 84.6586 112.959 84.9612 112 85.5342L76.6157 106.667C76.1458 106.939 75.6127 107.081 75.07 107.081C74.5273 107.081 73.9942 106.939 73.5243 106.667L32.9892 83.5556C32.6113 83.3521 32.2774 83.0757 32.0068 82.7425C31.7362 82.4093 31.5342 82.0258 31.4126 81.6142C31.2371 80.9572 31.2831 80.2607 31.5436 79.6325C31.804 79.0043 32.2643 78.4795 32.8532 78.1394L114.214 31.1494C114.684 30.8781 115.217 30.7352 115.76 30.7352C116.302 30.7352 116.835 30.8781 117.305 31.1494L198.598 78.0838C199.067 78.3555 199.455 78.7456 199.726 79.2149C199.996 79.6842 200.138 80.2163 200.138 80.7579C200.138 81.2995 199.996 81.8316 199.726 82.3009C199.455 82.7702 199.067 83.1602 198.598 83.432L157.673 107.174C157.203 107.443 156.67 107.584 156.128 107.582Z" fill="#A5FFA3"/>
<path d="M156.807 201.655C156.265 201.653 155.732 201.511 155.261 201.241C154.791 200.97 154.401 200.579 154.13 200.109C153.858 199.639 153.716 199.106 153.716 198.564V157.28L117.898 178.191C117.425 178.467 116.887 178.612 116.34 178.611H116C115.18 178.611 114.394 178.286 113.814 177.706C113.234 177.126 112.908 176.34 112.908 175.52L113.224 127.454C113.227 126.915 113.371 126.385 113.643 125.919C113.914 125.453 114.302 125.065 114.769 124.796L195.765 77.9539C196.232 77.6883 196.759 77.5486 197.296 77.5486C197.832 77.5486 198.36 77.6883 198.826 77.9539L199.11 78.1147C199.589 78.3836 199.987 78.7751 200.264 79.2488C200.541 79.7226 200.687 80.2616 200.687 80.8104V174.976C200.687 175.519 200.544 176.052 200.273 176.522C200.001 176.992 199.611 177.382 199.141 177.653L158.334 201.228C157.87 201.499 157.344 201.646 156.807 201.655Z" fill="#A5FFA3"/>
<path d="M197.614 80.7919V174.988L156.807 198.564V151.895L116.34 175.52H116V175.514L116.315 127.473L156.269 104.373L197.33 80.6312L197.614 80.7919Z" fill="#A5FFA3"/>
<path d="M75.1932 201.736C74.6508 201.734 74.1181 201.591 73.6475 201.321L32.8404 177.764C32.3705 177.493 31.9802 177.103 31.7089 176.633C31.4375 176.163 31.2947 175.63 31.2947 175.087V80.8908C31.2949 80.3459 31.4391 79.8107 31.7127 79.3395C31.9863 78.8683 32.3796 78.4777 32.8528 78.2075L33.0692 78.0838C33.5391 77.8125 34.0722 77.6696 34.6149 77.6696C35.1576 77.6696 35.6907 77.8125 36.1606 78.0838L118.177 124.95C118.653 125.222 119.048 125.615 119.321 126.09C119.595 126.565 119.738 127.104 119.735 127.652L119.419 175.662C119.416 176.205 119.27 176.737 118.995 177.206C118.721 177.674 118.328 178.062 117.856 178.33C117.384 178.598 116.85 178.737 116.307 178.733C115.764 178.73 115.232 178.583 114.764 178.309L78.2847 156.934V198.644C78.2847 199.187 78.1418 199.72 77.8705 200.19C77.5992 200.66 77.2089 201.05 76.739 201.321C76.2683 201.591 75.7357 201.734 75.1932 201.736Z" fill="#A5FFA3"/>
<path d="M116.618 127.634L116.303 175.644L75.1926 151.537V198.644L34.3855 175.087V80.8909L34.6019 80.7672L75.2915 104.015L116.618 127.634Z" fill="#A5FFA3"/>
<path d="M97.9151 4.84712L18.4649 50.6995C12.9638 53.8755 8.39621 58.4442 5.22149 63.946C2.04676 69.4477 0.3769 75.6885 0.379887 82.0406V173.776C0.379698 180.126 2.05085 186.364 5.22541 191.863C8.39996 197.363 12.9661 201.929 18.4649 205.105L97.9151 250.976C103.414 254.15 109.651 255.822 116 255.822C122.349 255.822 128.586 254.15 134.085 250.976L213.535 205.105C219.034 201.929 223.6 197.363 226.775 191.863C229.949 186.364 231.62 180.126 231.62 173.776V82.0406C231.623 75.6885 229.953 69.4477 226.779 63.946C223.604 58.4442 219.036 53.8755 213.535 50.6995L134.085 4.84712C128.586 1.67255 122.349 0.00127029 116 0.00127029C109.651 0.00127029 103.414 1.67255 97.9151 4.84712ZM196.73 195.651L133.844 231.951C128.345 235.126 122.108 236.797 115.759 236.797C109.41 236.797 103.172 235.126 97.6739 231.951L34.7939 195.651C29.2951 192.476 24.729 187.909 21.5544 182.41C18.3799 176.91 16.7087 170.672 16.7089 164.323V91.7106C16.7092 85.3617 18.3806 79.1248 21.5552 73.6265C24.7297 68.1283 29.2956 63.5625 34.7939 60.3881L97.6739 24.113C103.173 20.9397 109.41 19.2691 115.759 19.2691C122.108 19.2691 128.345 20.9397 133.844 24.113L196.73 60.3881C202.229 63.563 206.796 68.1298 209.97 73.6292C213.145 79.1286 214.816 85.3669 214.815 91.7168V164.323C214.815 170.672 213.144 176.91 209.97 182.41C206.795 187.909 202.229 192.476 196.73 195.651Z" fill="#A5FFA3"/>
</g>
<defs>
<clipPath id="clip0_7044_1770">
<rect width="231.24" height="255.823" fill="white" transform="translate(0.379883 -1.14441e-05)"/>
</clipPath>
</defs>
</svg>
